<svg xmlns="http://www.w3.org/2000/svg" xmlns:xlink="http://www.w3.org/1999/xlink" width="294.361" height="2799.456" viewBox="0 0 294.361 2799.456"><defs><style>.a{fill:#fff;}.b{clip-path:url(#a);}</style><clipPath id="a"><rect class="a" width="294.361" height="2799.456"/></clipPath></defs><g transform="translate(294.361 2751.299) rotate(-180)"><g class="b" transform="translate(0 -48.156)"><path class="a" d="M37.431,2691.6q-1.516-36.074-2.49-72.26l10.491-2.521q.953,35.521,2.438,70.929Zm-3.907-144.8q-.375-30.465-.375-60.986l.021-11.642,10.523.255-.021,11.387q0,29.955.365,59.882Zm10.835-143.614-10.512-1.586q.625-36.286,1.74-72.459l10.481,2.89q-1.11,35.521-1.709,71.155m4.407-142-10.429-4.192q1.625-35.989,3.771-71.75l10.356,5.467q-2.094,35.138-3.7,70.476m8.4-140.357-10.273-6.8q2.641-35.394,5.772-70.532l10.168,8.045q-3.079,34.458-5.668,69.286m12.3-137.807-10.054-9.291q3.641-34.714,7.741-68.89l9.908,10.509q-4.032,33.566-7.595,67.672m16.138-134.267L75.854,1837q4.595-33.652,9.658-66.709l9.574,12.974q-4.97,32.462-9.481,65.49m19.889-129.706-9.377-14.192q5.548-32.377,11.533-64.017l9.168,15.353q-5.892,31.06-11.325,62.856m23.546-124.126-8.929-16.542q6.454-30.847,13.377-60.817l8.679,17.732q-6.8,29.36-13.127,59.627m27.088-117.781-8.46-18.61q7.22-28.978,14.679-57.644l8.335,19.149q-7.376,28.383-14.554,57.106m29.411-113.786-8.283-19.29,1.052-4.022q6.923-26.3,13.8-52.659l8.324,19.12q-6.876,26.471-13.846,52.828Zm29.578-114.467-8.46-18.582q7.173-28.808,13.961-58.1l8.678,17.732c-4.594,19.856-9.335,39.458-14.179,58.947m27.546-119.877-8.96-16.4c4.313-20.82,8.3-41.526,11.856-61.5l9.3,14.616c-3.667,20.593-7.772,41.895-12.2,63.281m22.827-129.281-9.668-12.322c3.167-21.981,5.97-44.189,8.324-65.972l10.012,9.574c-2.448,22.718-5.365,45.832-8.668,68.72M280.45,859.74l-10.3-6.26c1.563-22.774,2.74-46.143,3.49-69.484l10.47,2.946c-.781,24.445-2.011,48.948-3.657,72.8m-5.8-145.993c-.073-23.341-.542-46.993-1.4-70.249l10.46-3.4c.9,24.3,1.386,48.976,1.459,73.365ZM269.5,574.013c-1.636-22.916-3.667-45.832-6.043-68.068l10.033-9.461c2.469,23.228,4.595,47.107,6.3,71.042ZM255.185,440.03c-3.125-21.556-6.647-42.773-10.47-63.083l9.189-15.268c3.99,21.245,7.678,43.453,10.939,65.944ZM232.119,317.49c-4.542-19.149-9.46-37.7-14.638-55.123l7.9-20.706c5.418,18.27,10.575,37.7,15.346,57.757ZM200.9,212.428c-5.761-15.551-11.929-30.451-18.326-44.3l6.178-25.3c6.709,14.5,13.179,30.139,19.222,46.427ZM162.733,129.8A333.8,333.8,0,0,0,141.7,97.65l4.324-28.5a345.316,345.316,0,0,1,21.993,33.567ZM119.663,71.93A161.649,161.649,0,0,0,96.878,52.81l2.355-30.479a165.537,165.537,0,0,1,23.785,19.942ZM2.956,46.578.977,15.844A94.831,94.831,0,0,1,25.512,6.015L26.356,37.2a89.963,89.963,0,0,0-23.4,9.376m70.626-6.062a84.555,84.555,0,0,0-23.6-5.3l.26-31.272A89.047,89.047,0,0,1,74.9,9.471Z" transform="translate(9.202 107.865)"/><path class="a" d="M51.957,253.265l6-25.748L15.294,139.762,47.852,19.63,39.642,0,0,146.334Z" transform="translate(0.001 0.011)"/></g></g></svg>