<svg xmlns="http://www.w3.org/2000/svg" viewBox="0 0 549.02 549.02"><defs><style>.cls-1{fill:#324588;}</style></defs><g id="Layer_2" data-name="Layer 2"><g id="Layer_1-2" data-name="Layer 1"><path class="cls-1" d="M408.57,1.74l-50.36-.2c-37.52-.18-64.33,10-82.2,28.22C258.36,11.13,231.56.58,193.77.33L143.41,0C63.28-.52,2,59.69,1.38,156.66,1.16,193.34,16.59,249.3,77.69,274,16.31,297.75.22,353.5,0,390.19c-.57,97,60.05,158,140.18,158.5l50.36.33c79.49.52,111-45.15,111.36-116.14l.76-128.23,111.6.8c11.69.07,21.19-13.08,21.23-29.34a35.47,35.47,0,0,0-6.1-20.73c-3.76-5.38-9-8.66-14.84-8.69l-111.33-.6.58-125.26c.11-37.21,19.39-57,57-56.94l44.67.23c52.53.21,85.7,30.64,85.45,91.25-.11,29.28-5.44,50.47-17.22,65-4.36,5.39-6.46,12.85-6.56,20.38v.07c-.14,22.6,20.36,36.68,35.81,24.16,36.18-29.38,46-75.39,46.1-105C549.43,63,488.71,2.13,408.57,1.74ZM245.17,429.87c-.22,37.28-19.5,57.05-57.08,56.8l-44.67-.29c-52.52-.35-85.64-30.9-85.29-91.45.39-66.69,27.51-91.64,97-91.18l90.64.59c.11,0,.16.07.16.2Zm1.09-184.35c0,.13-.06.19-.16.19l-90.65-.59c-69.47-.46-96.28-25.75-95.89-92.38C59.91,92.13,93.39,62,145.92,62.35l44.67.3c37.58.24,56.63,20.33,56.41,57.54Z"/></g></g></svg>