<svg xmlns="http://www.w3.org/2000/svg" xmlns:xlink="http://www.w3.org/1999/xlink" width="640" height="527" viewBox="0 0 640 527"><defs><clipPath id="a"><rect width="512" height="512" fill="none"/></clipPath><clipPath id="c"><rect width="640" height="527"/></clipPath></defs><g id="b" clip-path="url(#c)"><g transform="matrix(0.695, 0.719, -0.719, 0.695, 326.769, -40.769)" style="mix-blend-mode:overlay;isolation:isolate"><g clip-path="url(#a)"><path d="M381.019,1.623l-46.961-.185c-34.994-.168-60,9.285-76.659,26.313C240.937,10.382,215.949.542,180.7.311L133.743,0C59.009-.486,1.818,55.666,1.286,146.094c-.2,34.21,14.186,86.394,71.163,109.392C15.206,277.671.205,329.661,0,363.872-.529,454.3,56,511.2,130.73,511.688l46.961.308c74.127.486,103.464-42.1,103.854-108.306l.7-119.584,104.07.743c10.907.071,19.766-12.2,19.8-27.363a33.1,33.1,0,0,0-5.693-19.332c-3.505-5.016-8.386-8.069-13.839-8.1l-103.82-.558.536-116.811c.1-34.7,18.089-53.2,53.134-53.1L378.1,59.8c48.981.2,79.921,28.572,79.689,85.1-.11,27.307-5.074,47.063-16.061,60.614-4.07,5.028-6.03,11.982-6.121,19.008v.062c-.124,21.082,18.988,34.213,33.4,22.534,33.742-27.4,42.882-70.3,42.994-97.917.381-90.429-56.246-147.2-130.98-147.57M228.64,400.878c-.205,34.765-18.19,53.2-53.234,52.972l-41.659-.272C84.767,453.257,53.88,424.76,54.212,368.3c.367-62.2,25.651-85.455,90.436-85.031l84.529.554c.1,0,.151.063.15.186Zm1.012-171.918c0,.123-.051.186-.152.185l-84.53-.554c-64.785-.425-89.794-24.014-89.428-86.148.333-56.526,31.554-84.615,80.535-84.294l41.659.272c35.044.229,52.809,18.963,52.6,53.667Z" transform="translate(0 0)" fill="#fff"/></g></g></g></svg>