<svg xmlns="http://www.w3.org/2000/svg" width="107.902" height="107.902" viewBox="0 0 107.902 107.902">
  <path id="Path_52" data-name="Path 52" d="M56.788.242l-7-.028C44.573.189,40.847,1.6,38.363,4.136,35.91,1.547,32.186.08,26.932.046l-7-.046C8.795-.073.271,8.3.192,21.774c-.03,5.1,2.114,12.876,10.606,16.3C2.266,41.384.031,49.133,0,54.232-.079,67.71,8.346,76.19,19.484,76.263l7,.046c11.048.072,15.421-6.275,15.479-16.142l.1-17.823,15.511.111c1.626.011,2.946-1.818,2.952-4.078a4.934,4.934,0,0,0-.849-2.881,2.563,2.563,0,0,0-2.063-1.208L42.145,34.2l.08-17.41c.015-5.172,2.7-7.93,7.919-7.914l6.209.032c7.3.029,11.912,4.258,11.877,12.683-.016,4.07-.756,7.014-2.394,9.034a4.623,4.623,0,0,0-.912,2.833v.009c-.018,3.142,2.83,5.1,4.978,3.358,5.029-4.083,6.391-10.478,6.408-14.594C76.366,8.758,67.926.3,56.788.242M34.077,59.747c-.031,5.181-2.711,7.929-7.934,7.9L19.934,67.6c-7.3-.048-11.9-4.3-11.854-12.711.055-9.27,3.823-12.736,13.479-12.673l12.6.083c.015,0,.023.009.022.028Zm.151-25.623c0,.018-.008.028-.023.028l-12.6-.083C11.951,34.006,8.224,30.49,8.278,21.23c.05-8.425,4.7-12.611,12-12.563l6.209.041c5.223.034,7.871,2.826,7.84,8Z" transform="matrix(0.695, 0.719, -0.719, 0.695, 54.892, 0)" fill="#042194"/>
</svg>
