<svg id="Group_2" data-name="Group 2" xmlns="http://www.w3.org/2000/svg" xmlns:xlink="http://www.w3.org/1999/xlink" width="100" height="100" viewBox="0 0 100 100">
  <defs>
    <clipPath id="clip-path">
      <rect id="Rectangle_1" data-name="Rectangle 1" width="100" height="100" fill="none"/>
    </clipPath>
  </defs>
  <g id="Group_1" data-name="Group 1" clip-path="url(#clip-path)">
    <path id="Path_2" data-name="Path 2" d="M75.079,100H24.921A24.921,24.921,0,0,1,0,75.079V24.921A24.921,24.921,0,0,1,24.921,0H75.079A24.921,24.921,0,0,1,100,24.921V75.079A24.921,24.921,0,0,1,75.079,100" fill="#fff"/>
    <path id="Path_3" data-name="Path 3" d="M136.01,127.136l-3.544-3.581c-2.638-2.671-5.25-3.853-7.806-3.829.072-2.566-1.074-5.21-3.726-7.9l-3.534-3.59c-5.625-5.713-14.222-5.8-21.131,1.007a12.21,12.21,0,0,0-2.917,13.692,12.178,12.178,0,0,0-13.721,2.709c-6.908,6.81-6.948,15.414-1.323,21.127l3.534,3.59c5.579,5.667,11.036,4.669,16.094-.317l9.136-9.006L114.9,149c.821.834,2.424.577,3.579-.569a3.55,3.55,0,0,0,1.037-1.9,1.845,1.845,0,0,0-.433-1.665l-7.823-7.928,8.913-8.809c2.644-2.621,5.411-2.657,8.058.013l3.14,3.18c3.7,3.735,3.885,8.235-.426,12.5-2.083,2.061-3.959,3.18-5.821,3.372a3.326,3.326,0,0,0-1.907.975l0,0c-1.61,1.588-1.16,4.034.819,4.244,4.637.487,8.588-2.069,10.694-4.153,6.9-6.822,6.919-15.424,1.285-21.128M94.141,145.809c-2.656,2.618-5.419,2.649-8.056-.03l-3.135-3.185c-3.686-3.745-3.862-8.25.452-12.5,4.752-4.684,8.434-4.526,13.31.427l6.362,6.462c.007.008.007.016,0,.026Zm13.134-12.947c-.009.009-.018.01-.026,0l-6.362-6.462c-4.876-4.953-4.979-8.639-.232-13.319,4.319-4.257,8.817-4.014,12.5-.269L116.3,116c2.638,2.679,2.561,5.448-.091,8.061Z" transform="translate(-55.832 -78.221)" fill="#1e4f9c"/>
  </g>
</svg>
