<svg xmlns="http://www.w3.org/2000/svg" width="685.424" height="910.6" viewBox="0 0 685.424 910.6">
  <g id="strings" transform="translate(-1494 -144)">
    <g id="Path_20" data-name="Path 20" transform="translate(1681.576 144)" fill="none">
      <path d="M65.69,0C-79.729,0-187.576,330.782-187.576,524.351s142.641,117.537,288.06,117.537S497.848,946.835,497.848,753.266,211.11,0,65.69,0Z" stroke="none"/>
      <path d="M 65.69047546386719 1.00006103515625 C 56.86482238769531 1.00006103515625 47.93624877929688 2.25323486328125 39.1527099609375 4.7247314453125 C 30.61636352539063 7.12677001953125 22.00057983398438 10.74005126953125 13.54446411132813 15.46441650390625 C 5.324951171875 20.0565185546875 -2.94683837890625 25.81170654296875 -11.04095458984375 32.5699462890625 C -18.90716552734375 39.1378173828125 -26.7955322265625 46.81134033203125 -34.487060546875 55.3773193359375 C -49.26458740234375 71.8353271484375 -63.73211669921875 92.02203369140625 -77.48776245117188 115.3767700195313 C -90.53082275390625 137.5215454101563 -103.0015258789063 162.6204833984375 -114.5536499023438 189.9761352539063 C -136.3760070800781 241.6526489257813 -154.6756591796875 300.7803955078125 -167.474365234375 360.9673461914063 C -173.6527099609375 390.021484375 -178.4269409179688 418.7521362304688 -181.6644592285156 446.3614501953125 C -184.9234008789063 474.1524047851563 -186.5757751464844 500.3920288085938 -186.5757751464844 524.3511962890625 C -186.5757751464844 537.627685546875 -185.8887023925781 549.9698486328125 -184.5336608886719 561.03466796875 C -183.2157592773438 571.7965087890625 -181.2232971191406 581.697021484375 -178.6115417480469 590.4608764648438 C -176.0831909179688 598.9449462890625 -172.8909301757813 606.6436767578125 -169.1231689453125 613.343017578125 C -165.4941101074219 619.796142578125 -161.2061157226563 625.5430908203125 -156.3783569335938 630.4244995117188 C -151.7498779296875 635.1043701171875 -146.4566955566406 639.1578369140625 -140.6461181640625 642.4722900390625 C -135.1090698242188 645.6307373046875 -128.8883666992188 648.2391357421875 -122.1567077636719 650.22509765625 C -109.8849487304688 653.8455810546875 -95.41717529296875 655.60546875 -77.92657470703125 655.60546875 C -53.9349365234375 655.60546875 -27.1717529296875 652.3382568359375 1.1627197265625 648.8792114257813 C 17.01095581054688 646.9445190429688 33.39859008789063 644.9439697265625 50.02035522460938 643.4310913085938 C 68.818115234375 641.7201538085938 85.32505798339844 640.8885498046875 100.4841156005859 640.8885498046875 C 127.5755310058594 640.8885498046875 160.7391815185547 651.435546875 201.8699951171875 673.1323852539063 C 238.0032958984375 692.19287109375 275.2081298828125 716.99560546875 311.1881103515625 740.9815673828125 C 341.0431823730469 760.8843994140625 369.2425842285156 779.68359375 394.5441284179688 793.6654663085938 C 408.0711669921875 801.140625 419.626953125 806.60888671875 429.8715209960938 810.3827514648438 C 435.3790588378906 812.4115600585938 440.5721130371094 813.961181640625 445.3065795898438 814.98876953125 C 450.2327270507813 816.0579223632813 454.8368225097656 816.6000366210938 458.9910583496094 816.6000366210938 C 461.9756469726563 816.6000366210938 464.8096313476563 816.3208618164063 467.4142456054688 815.7703857421875 C 470.0689392089844 815.2093505859375 472.568359375 814.3487548828125 474.8430786132813 813.2125244140625 C 477.1643676757813 812.052978515625 479.3254089355469 810.569580078125 481.2662353515625 808.8033447265625 C 483.2535400390625 806.994873046875 485.0726928710938 804.833251953125 486.6730651855469 802.3782958984375 C 489.9888305664063 797.2920532226563 492.5239868164063 790.7007446289063 494.2080078125 782.787841796875 C 495.9601135253906 774.5553588867188 496.8484497070313 764.6227416992188 496.8484497070313 753.2659301757813 C 496.8484497070313 729.81640625 492.616943359375 700.306884765625 484.2713012695313 665.5570068359375 C 476.3043518066406 632.3836669921875 464.718017578125 594.9345092773438 449.834228515625 554.2496948242188 C 435.34423828125 514.641357421875 418.0880126953125 472.9319152832031 398.5448303222656 430.2799072265625 C 379.0257568359375 387.680419921875 357.7889404296875 345.3703002929688 335.4245910644531 304.5247192382813 C 312.5005798339844 262.657470703125 288.9739990234375 223.4025268554688 265.4983520507813 187.8504028320313 C 240.9274139404297 150.6394653320313 216.8056488037109 118.0967407226563 193.8030548095703 91.12603759765625 C 169.4143524169922 62.5303955078125 146.4090576171875 40.36260986328125 125.4262390136719 25.2388916015625 C 114.4656524658203 17.338623046875 103.9354095458984 11.28900146484375 94.12800598144531 7.2579345703125 C 89.11587524414063 5.19781494140625 84.19717407226563 3.62652587890625 79.50823974609375 2.58782958984375 C 74.75199890136719 1.5343017578125 70.10293579101563 1.00006103515625 65.69047546386719 1.00006103515625 M 65.69047546386719 6.103515625e-05 C 211.1096496582031 6.103515625e-05 497.8484497070313 559.69677734375 497.8484497070313 753.2659301757813 C 497.8484497070313 799.90966796875 483.2337646484375 817.6000366210938 458.9910278320313 817.6000366210938 C 382.6275939941406 817.6000366210938 210.8621826171875 641.8885498046875 100.4841156005859 641.8885498046875 C 36.49932861328125 641.8885498046875 -26.931884765625 656.60546875 -77.92660522460938 656.60546875 C -142.828369140625 656.60546875 -187.5757751464844 632.74951171875 -187.5757751464844 524.3511962890625 C -187.5757751464844 330.7820434570313 -79.72869873046875 6.103515625e-05 65.69047546386719 6.103515625e-05 Z" stroke="none" fill="rgba(63,255,178,0.98)"/>
    </g>
    <g id="Path_21" data-name="Path 21" transform="translate(1681.576 189)" fill="none">
      <path d="M65.69,0C-79.729,0-187.576,330.782-187.576,524.351s142.641,117.537,288.06,117.537S497.848,946.835,497.848,753.266,211.11,0,65.69,0Z" stroke="none"/>
      <path d="M 65.69047546386719 1.00006103515625 C 56.86482238769531 1.00006103515625 47.93624877929688 2.25323486328125 39.1527099609375 4.7247314453125 C 30.61636352539063 7.12677001953125 22.00057983398438 10.74005126953125 13.54446411132813 15.46441650390625 C 5.324951171875 20.0565185546875 -2.94683837890625 25.81170654296875 -11.04095458984375 32.5699462890625 C -18.90716552734375 39.1378173828125 -26.7955322265625 46.81134033203125 -34.487060546875 55.3773193359375 C -49.26458740234375 71.8353271484375 -63.73211669921875 92.02203369140625 -77.48776245117188 115.3767700195313 C -90.53082275390625 137.5215454101563 -103.0015258789063 162.6204833984375 -114.5536499023438 189.9761352539063 C -136.3760070800781 241.6526489257813 -154.6756591796875 300.7803955078125 -167.474365234375 360.9673461914063 C -173.6527099609375 390.021484375 -178.4269409179688 418.7521362304688 -181.6644592285156 446.3614501953125 C -184.9234008789063 474.1524047851563 -186.5757751464844 500.3920288085938 -186.5757751464844 524.3511962890625 C -186.5757751464844 537.627685546875 -185.8887023925781 549.9698486328125 -184.5336608886719 561.03466796875 C -183.2157592773438 571.7965087890625 -181.2232971191406 581.697021484375 -178.6115417480469 590.4608764648438 C -176.0831909179688 598.9449462890625 -172.8909301757813 606.6436767578125 -169.1231689453125 613.343017578125 C -165.4941101074219 619.796142578125 -161.2061157226563 625.5430908203125 -156.3783569335938 630.4244995117188 C -151.7498779296875 635.1043701171875 -146.4566955566406 639.1578369140625 -140.6461181640625 642.4722900390625 C -135.1090698242188 645.6307373046875 -128.8883666992188 648.2391357421875 -122.1567077636719 650.22509765625 C -109.8849487304688 653.8455810546875 -95.41717529296875 655.60546875 -77.92657470703125 655.60546875 C -53.9349365234375 655.60546875 -27.1717529296875 652.3382568359375 1.1627197265625 648.8792114257813 C 17.01095581054688 646.9445190429688 33.39859008789063 644.9439697265625 50.02035522460938 643.4310913085938 C 68.818115234375 641.7201538085938 85.32505798339844 640.8885498046875 100.4841156005859 640.8885498046875 C 127.5755310058594 640.8885498046875 160.7391815185547 651.435546875 201.8699951171875 673.1323852539063 C 238.0032958984375 692.19287109375 275.2081298828125 716.99560546875 311.1881103515625 740.9815673828125 C 341.0431823730469 760.8843994140625 369.2425842285156 779.68359375 394.5441284179688 793.6654663085938 C 408.0711669921875 801.140625 419.626953125 806.60888671875 429.8715209960938 810.3827514648438 C 435.3790588378906 812.4115600585938 440.5721130371094 813.961181640625 445.3065795898438 814.98876953125 C 450.2327270507813 816.0579223632813 454.8368225097656 816.6000366210938 458.9910583496094 816.6000366210938 C 461.9756469726563 816.6000366210938 464.8096313476563 816.3208618164063 467.4142456054688 815.7703857421875 C 470.0689392089844 815.2093505859375 472.568359375 814.3487548828125 474.8430786132813 813.2125244140625 C 477.1643676757813 812.052978515625 479.3254089355469 810.569580078125 481.2662353515625 808.8033447265625 C 483.2535400390625 806.994873046875 485.0726928710938 804.833251953125 486.6730651855469 802.3782958984375 C 489.9888305664063 797.2920532226563 492.5239868164063 790.7007446289063 494.2080078125 782.787841796875 C 495.9601135253906 774.5553588867188 496.8484497070313 764.6227416992188 496.8484497070313 753.2659301757813 C 496.8484497070313 729.81640625 492.616943359375 700.306884765625 484.2713012695313 665.5570068359375 C 476.3043518066406 632.3836669921875 464.718017578125 594.9345092773438 449.834228515625 554.2496948242188 C 435.34423828125 514.641357421875 418.0880126953125 472.9319152832031 398.5448303222656 430.2799072265625 C 379.0257568359375 387.680419921875 357.7889404296875 345.3703002929688 335.4245910644531 304.5247192382813 C 312.5005798339844 262.657470703125 288.9739990234375 223.4025268554688 265.4983520507813 187.8504028320313 C 240.9274139404297 150.6394653320313 216.8056488037109 118.0967407226563 193.8030548095703 91.12603759765625 C 169.4143524169922 62.5303955078125 146.4090576171875 40.36260986328125 125.4262390136719 25.2388916015625 C 114.4656524658203 17.338623046875 103.9354095458984 11.28900146484375 94.12800598144531 7.2579345703125 C 89.11587524414063 5.19781494140625 84.19717407226563 3.62652587890625 79.50823974609375 2.58782958984375 C 74.75199890136719 1.5343017578125 70.10293579101563 1.00006103515625 65.69047546386719 1.00006103515625 M 65.69047546386719 6.103515625e-05 C 211.1096496582031 6.103515625e-05 497.8484497070313 559.69677734375 497.8484497070313 753.2659301757813 C 497.8484497070313 799.90966796875 483.2337646484375 817.6000366210938 458.9910278320313 817.6000366210938 C 382.6275939941406 817.6000366210938 210.8621826171875 641.8885498046875 100.4841156005859 641.8885498046875 C 36.49932861328125 641.8885498046875 -26.931884765625 656.60546875 -77.92660522460938 656.60546875 C -142.828369140625 656.60546875 -187.5757751464844 632.74951171875 -187.5757751464844 524.3511962890625 C -187.5757751464844 330.7820434570313 -79.72869873046875 6.103515625e-05 65.69047546386719 6.103515625e-05 Z" stroke="none" fill="rgba(63,255,178,0.98)"/>
    </g>
    <g id="Path_22" data-name="Path 22" transform="translate(1681.576 219)" fill="none">
      <path d="M65.69,0C-79.729,0-187.576,330.782-187.576,524.351s142.641,117.537,288.06,117.537S497.848,946.835,497.848,753.266,211.11,0,65.69,0Z" stroke="none"/>
      <path d="M 65.69047546386719 1.00006103515625 C 56.86482238769531 1.00006103515625 47.93624877929688 2.25323486328125 39.1527099609375 4.7247314453125 C 30.61636352539063 7.12677001953125 22.00057983398438 10.74005126953125 13.54446411132813 15.46441650390625 C 5.324951171875 20.0565185546875 -2.94683837890625 25.81170654296875 -11.04095458984375 32.5699462890625 C -18.90716552734375 39.1378173828125 -26.7955322265625 46.81134033203125 -34.487060546875 55.3773193359375 C -49.26458740234375 71.8353271484375 -63.73211669921875 92.02203369140625 -77.48776245117188 115.3767700195313 C -90.53082275390625 137.5215454101563 -103.0015258789063 162.6204833984375 -114.5536499023438 189.9761352539063 C -136.3760070800781 241.6526489257813 -154.6756591796875 300.7803955078125 -167.474365234375 360.9673461914063 C -173.6527099609375 390.021484375 -178.4269409179688 418.7521362304688 -181.6644592285156 446.3614501953125 C -184.9234008789063 474.1524047851563 -186.5757751464844 500.3920288085938 -186.5757751464844 524.3511962890625 C -186.5757751464844 537.627685546875 -185.8887023925781 549.9698486328125 -184.5336608886719 561.03466796875 C -183.2157592773438 571.7965087890625 -181.2232971191406 581.697021484375 -178.6115417480469 590.4608764648438 C -176.0831909179688 598.9449462890625 -172.8909301757813 606.6436767578125 -169.1231689453125 613.343017578125 C -165.4941101074219 619.796142578125 -161.2061157226563 625.5430908203125 -156.3783569335938 630.4244995117188 C -151.7498779296875 635.1043701171875 -146.4566955566406 639.1578369140625 -140.6461181640625 642.4722900390625 C -135.1090698242188 645.6307373046875 -128.8883666992188 648.2391357421875 -122.1567077636719 650.22509765625 C -109.8849487304688 653.8455810546875 -95.41717529296875 655.60546875 -77.92657470703125 655.60546875 C -53.9349365234375 655.60546875 -27.1717529296875 652.3382568359375 1.1627197265625 648.8792114257813 C 17.01095581054688 646.9445190429688 33.39859008789063 644.9439697265625 50.02035522460938 643.4310913085938 C 68.818115234375 641.7201538085938 85.32505798339844 640.8885498046875 100.4841156005859 640.8885498046875 C 127.5755310058594 640.8885498046875 160.7391815185547 651.435546875 201.8699951171875 673.1323852539063 C 238.0032958984375 692.19287109375 275.2081298828125 716.99560546875 311.1881103515625 740.9815673828125 C 341.0431823730469 760.8843994140625 369.2425842285156 779.68359375 394.5441284179688 793.6654663085938 C 408.0711669921875 801.140625 419.626953125 806.60888671875 429.8715209960938 810.3827514648438 C 435.3790588378906 812.4115600585938 440.5721130371094 813.961181640625 445.3065795898438 814.98876953125 C 450.2327270507813 816.0579223632813 454.8368225097656 816.6000366210938 458.9910583496094 816.6000366210938 C 461.9756469726563 816.6000366210938 464.8096313476563 816.3208618164063 467.4142456054688 815.7703857421875 C 470.0689392089844 815.2093505859375 472.568359375 814.3487548828125 474.8430786132813 813.2125244140625 C 477.1643676757813 812.052978515625 479.3254089355469 810.569580078125 481.2662353515625 808.8033447265625 C 483.2535400390625 806.994873046875 485.0726928710938 804.833251953125 486.6730651855469 802.3782958984375 C 489.9888305664063 797.2920532226563 492.5239868164063 790.7007446289063 494.2080078125 782.787841796875 C 495.9601135253906 774.5553588867188 496.8484497070313 764.6227416992188 496.8484497070313 753.2659301757813 C 496.8484497070313 729.81640625 492.616943359375 700.306884765625 484.2713012695313 665.5570068359375 C 476.3043518066406 632.3836669921875 464.718017578125 594.9345092773438 449.834228515625 554.2496948242188 C 435.34423828125 514.641357421875 418.0880126953125 472.9319152832031 398.5448303222656 430.2799072265625 C 379.0257568359375 387.680419921875 357.7889404296875 345.3703002929688 335.4245910644531 304.5247192382813 C 312.5005798339844 262.657470703125 288.9739990234375 223.4025268554688 265.4983520507813 187.8504028320313 C 240.9274139404297 150.6394653320313 216.8056488037109 118.0967407226563 193.8030548095703 91.12603759765625 C 169.4143524169922 62.5303955078125 146.4090576171875 40.36260986328125 125.4262390136719 25.2388916015625 C 114.4656524658203 17.338623046875 103.9354095458984 11.28900146484375 94.12800598144531 7.2579345703125 C 89.11587524414063 5.19781494140625 84.19717407226563 3.62652587890625 79.50823974609375 2.58782958984375 C 74.75199890136719 1.5343017578125 70.10293579101563 1.00006103515625 65.69047546386719 1.00006103515625 M 65.69047546386719 6.103515625e-05 C 211.1096496582031 6.103515625e-05 497.8484497070313 559.69677734375 497.8484497070313 753.2659301757813 C 497.8484497070313 799.90966796875 483.2337646484375 817.6000366210938 458.9910278320313 817.6000366210938 C 382.6275939941406 817.6000366210938 210.8621826171875 641.8885498046875 100.4841156005859 641.8885498046875 C 36.49932861328125 641.8885498046875 -26.931884765625 656.60546875 -77.92660522460938 656.60546875 C -142.828369140625 656.60546875 -187.5757751464844 632.74951171875 -187.5757751464844 524.3511962890625 C -187.5757751464844 330.7820434570313 -79.72869873046875 6.103515625e-05 65.69047546386719 6.103515625e-05 Z" stroke="none" fill="rgba(63,255,178,0.98)"/>
    </g>
    <g id="Path_23" data-name="Path 23" transform="translate(1681.576 237)" fill="none">
      <path d="M65.69,0C-79.729,0-187.576,330.782-187.576,524.351s142.641,117.537,288.06,117.537S497.848,946.835,497.848,753.266,211.11,0,65.69,0Z" stroke="none"/>
      <path d="M 65.69047546386719 1.00006103515625 C 56.86482238769531 1.00006103515625 47.93624877929688 2.25323486328125 39.1527099609375 4.7247314453125 C 30.61636352539063 7.12677001953125 22.00057983398438 10.74005126953125 13.54446411132813 15.46441650390625 C 5.324951171875 20.0565185546875 -2.94683837890625 25.81170654296875 -11.04095458984375 32.5699462890625 C -18.90716552734375 39.1378173828125 -26.7955322265625 46.81134033203125 -34.487060546875 55.3773193359375 C -49.26458740234375 71.8353271484375 -63.73211669921875 92.02203369140625 -77.48776245117188 115.3767700195313 C -90.53082275390625 137.5215454101563 -103.0015258789063 162.6204833984375 -114.5536499023438 189.9761352539063 C -136.3760070800781 241.6526489257813 -154.6756591796875 300.7803955078125 -167.474365234375 360.9673461914063 C -173.6527099609375 390.021484375 -178.4269409179688 418.7521362304688 -181.6644592285156 446.3614501953125 C -184.9234008789063 474.1524047851563 -186.5757751464844 500.3920288085938 -186.5757751464844 524.3511962890625 C -186.5757751464844 537.627685546875 -185.8887023925781 549.9698486328125 -184.5336608886719 561.03466796875 C -183.2157592773438 571.7965087890625 -181.2232971191406 581.697021484375 -178.6115417480469 590.4608764648438 C -176.0831909179688 598.9449462890625 -172.8909301757813 606.6436767578125 -169.1231689453125 613.343017578125 C -165.4941101074219 619.796142578125 -161.2061157226563 625.5430908203125 -156.3783569335938 630.4244995117188 C -151.7498779296875 635.1043701171875 -146.4566955566406 639.1578369140625 -140.6461181640625 642.4722900390625 C -135.1090698242188 645.6307373046875 -128.8883666992188 648.2391357421875 -122.1567077636719 650.22509765625 C -109.8849487304688 653.8455810546875 -95.41717529296875 655.60546875 -77.92657470703125 655.60546875 C -53.9349365234375 655.60546875 -27.1717529296875 652.3382568359375 1.1627197265625 648.8792114257813 C 17.01095581054688 646.9445190429688 33.39859008789063 644.9439697265625 50.02035522460938 643.4310913085938 C 68.818115234375 641.7201538085938 85.32505798339844 640.8885498046875 100.4841156005859 640.8885498046875 C 127.5755310058594 640.8885498046875 160.7391815185547 651.435546875 201.8699951171875 673.1323852539063 C 238.0032958984375 692.19287109375 275.2081298828125 716.99560546875 311.1881103515625 740.9815673828125 C 341.0431823730469 760.8843994140625 369.2425842285156 779.68359375 394.5441284179688 793.6654663085938 C 408.0711669921875 801.140625 419.626953125 806.60888671875 429.8715209960938 810.3827514648438 C 435.3790588378906 812.4115600585938 440.5721130371094 813.961181640625 445.3065795898438 814.98876953125 C 450.2327270507813 816.0579223632813 454.8368225097656 816.6000366210938 458.9910583496094 816.6000366210938 C 461.9756469726563 816.6000366210938 464.8096313476563 816.3208618164063 467.4142456054688 815.7703857421875 C 470.0689392089844 815.2093505859375 472.568359375 814.3487548828125 474.8430786132813 813.2125244140625 C 477.1643676757813 812.052978515625 479.3254089355469 810.569580078125 481.2662353515625 808.8033447265625 C 483.2535400390625 806.994873046875 485.0726928710938 804.833251953125 486.6730651855469 802.3782958984375 C 489.9888305664063 797.2920532226563 492.5239868164063 790.7007446289063 494.2080078125 782.787841796875 C 495.9601135253906 774.5553588867188 496.8484497070313 764.6227416992188 496.8484497070313 753.2659301757813 C 496.8484497070313 729.81640625 492.616943359375 700.306884765625 484.2713012695313 665.5570068359375 C 476.3043518066406 632.3836669921875 464.718017578125 594.9345092773438 449.834228515625 554.2496948242188 C 435.34423828125 514.641357421875 418.0880126953125 472.9319152832031 398.5448303222656 430.2799072265625 C 379.0257568359375 387.680419921875 357.7889404296875 345.3703002929688 335.4245910644531 304.5247192382813 C 312.5005798339844 262.657470703125 288.9739990234375 223.4025268554688 265.4983520507813 187.8504028320313 C 240.9274139404297 150.6394653320313 216.8056488037109 118.0967407226563 193.8030548095703 91.12603759765625 C 169.4143524169922 62.5303955078125 146.4090576171875 40.36260986328125 125.4262390136719 25.2388916015625 C 114.4656524658203 17.338623046875 103.9354095458984 11.28900146484375 94.12800598144531 7.2579345703125 C 89.11587524414063 5.19781494140625 84.19717407226563 3.62652587890625 79.50823974609375 2.58782958984375 C 74.75199890136719 1.5343017578125 70.10293579101563 1.00006103515625 65.69047546386719 1.00006103515625 M 65.69047546386719 6.103515625e-05 C 211.1096496582031 6.103515625e-05 497.8484497070313 559.69677734375 497.8484497070313 753.2659301757813 C 497.8484497070313 799.90966796875 483.2337646484375 817.6000366210938 458.9910278320313 817.6000366210938 C 382.6275939941406 817.6000366210938 210.8621826171875 641.8885498046875 100.4841156005859 641.8885498046875 C 36.49932861328125 641.8885498046875 -26.931884765625 656.60546875 -77.92660522460938 656.60546875 C -142.828369140625 656.60546875 -187.5757751464844 632.74951171875 -187.5757751464844 524.3511962890625 C -187.5757751464844 330.7820434570313 -79.72869873046875 6.103515625e-05 65.69047546386719 6.103515625e-05 Z" stroke="none" fill="rgba(63,255,178,0.98)"/>
    </g>
  </g>
</svg>
