<svg xmlns="http://www.w3.org/2000/svg" xmlns:xlink="http://www.w3.org/1999/xlink" width="499.4" height="486.9" viewBox="0 0 499.4 486.9">
  <defs>
    <radialGradient id="radial-gradient" cx="0.332" cy="0.223" r="0.781" gradientTransform="matrix(0.973, 0, 0, -0.968, -0.039, 2.633)" gradientUnits="objectBoundingBox">
      <stop offset="0" stop-color="#423325" stop-opacity="0.98"/>
      <stop offset="1" stop-color="#1c0a00"/>
    </radialGradient>
  </defs>
  <g id="adobe-illustrator-cc-seeklogo.com" transform="translate(362.4 -472.2)">
    <path id="Path_54" data-name="Path 54" d="M-341.6,493H116.1V938.3H-341.6Z" fill="url(#radial-gradient)"/>
    <path id="Path_55" data-name="Path 55" d="M-341.6,493H116.1V938.3H-341.6Zm-20.8,466.1H137V472.2H-362.4ZM-35.3,645.8c0-1.7.6-2.5,2.5-2.5H-.1c1.7,0,2.5.6,2.5,2.5V810c0,1.7-.4,2.5-2.5,2.5H-32.4c-2.1,0-2.7-1-2.7-2.7v-164Zm-2.3-47.3c0-13.3,9.4-21.2,21.2-21.2,12.7,0,21.2,8.5,21.2,21.2,0,13.7-8.9,21.2-21.6,21.2C-28.8,619.8-37.6,612.3-37.6,598.5Zm-93.6,115.7c-5.8-23.1-19.6-73.4-24.8-97.8h-.4c-4.4,24.3-15.4,65.5-24.1,97.8ZM-189,747.9l-16.4,62.4c-.4,1.7-1,2.1-3.1,2.1h-30.6c-2.1,0-2.5-.6-2.1-3.1l59.1-206.8c1-3.7,1.7-7.1,2.1-17.3,0-1.5.6-2.1,1.7-2.1h43.7c1.5,0,2.1.4,2.5,2.1l66.2,224.5c.4,1.7,0,2.7-1.7,2.7h-34.5c-1.7,0-2.7-.4-3.1-1.9l-17.1-62.6H-189Z" fill="#ff7f18"/>
  </g>
</svg>
