<svg xmlns="http://www.w3.org/2000/svg" width="238.817" height="271" viewBox="0 0 238.817 271">
  <g id="Guides_to_delete" transform="translate(-208.627 -101.984)">
    <g id="Group_5" data-name="Group 5" transform="translate(208.627 101.984)">
      <path id="Path_32" data-name="Path 32" d="M230.371,345.882l-21.744-243.9H447.444L425.674,345.9l-97.7,27.083Z" transform="translate(-208.627 -101.984)" fill="#e34e26"/>
      <path id="Path_33" data-name="Path 33" d="M1000,234.108V464.455l79-21.9,18.614-208.447Z" transform="translate(-880.591 -214.172)" fill="#ef662a"/>
      <path id="Path_34" data-name="Path 34" d="M503.468,432.378l8.063,90.461H615.213l-3.479,38.8-33.383,9.026-33.32-9.013L542.8,536.738H512.776l4.294,48.025,61.273,17.019,61.352-17.019,8.225-91.835H538.891l-2.738-30.633H650.629l2.68-29.917Z" transform="translate(-458.98 -382.526)" fill="#fff"/>
      <g id="Group_4" data-name="Group 4" transform="translate(44.488 49.852)">
        <path id="Path_35" data-name="Path 35" d="M578.389,432.378H503.468l8.063,90.461h66.858V492.928h-39.5l-2.738-30.633h42.236Z" transform="translate(-503.468 -432.378)" fill="#ebebeb"/>
        <path id="Path_36" data-name="Path 36" d="M630.768,1157.932l-.039.014-33.32-9.013-2.228-24.913H565.155l4.294,48.025,61.273,17.019.046-.014Z" transform="translate(-555.847 -1019.66)" fill="#ebebeb"/>
      </g>
    </g>
  </g>
</svg>
