<svg xmlns="http://www.w3.org/2000/svg" width="521.806" height="263.769" viewBox="0 0 521.806 263.769">
  <g id="Group_8" data-name="Group 8" transform="translate(949 -1965.335)">
    <g id="mongodb-seeklogo.com" transform="translate(-949 1965.132)">
      <g id="Group_7" data-name="Group 7" transform="translate(0 0.203)">
        <g id="Group_6" data-name="Group 6">
          <path id="Path_39" data-name="Path 39" d="M42.563,221.209l-6.185-2.114s.755-31.529-10.56-33.792c-7.543-8.751,1.207-371.126,28.362-1.208,0,0-9.353,4.677-11.013,12.673-1.811,7.846-.6,24.441-.6,24.441Z" transform="translate(14.743 11.123)" fill="#fff" fill-rule="evenodd"/>
          <path id="Path_40" data-name="Path 40" d="M42.563,221.209l-6.185-2.114s.755-31.529-10.56-33.792c-7.543-8.751,1.207-371.126,28.362-1.208,0,0-9.353,4.677-11.013,12.673-1.811,7.846-.6,24.441-.6,24.441Z" transform="translate(14.743 11.123)" fill="#a6a385" fill-rule="evenodd"/>
          <path id="Path_41" data-name="Path 41" d="M40.775,201.825s54.16-35.6,41.487-109.679c-12.219-53.858-41.036-71.509-44.2-78.3C34.59,9.02,31.27.572,31.27.572L33.534,150.38c0,.151-4.678,45.863,7.241,51.445" transform="translate(19.85 0.032)" fill="#fff" fill-rule="evenodd"/>
          <path id="Path_42" data-name="Path 42" d="M40.775,201.825s54.16-35.6,41.487-109.679c-12.219-53.858-41.036-71.509-44.2-78.3C34.59,9.02,31.27.572,31.27.572L33.534,150.38c0,.151-4.678,45.863,7.241,51.445" transform="translate(19.85 0.032)" fill="#499d4a" fill-rule="evenodd"/>
          <path id="Path_43" data-name="Path 43" d="M47.953,204.02s-50.841-34.7-47.824-95.8C2.995,47.122,38.9,17.1,45.84,11.669,50.367,6.841,50.518,5.03,50.82.2c3.167,6.789,2.565,101.532,3.016,112.7,1.358,43-2.414,82.977-5.883,91.121Z" transform="translate(0 -0.203)" fill="#fff" fill-rule="evenodd"/>
          <path id="Path_44" data-name="Path 44" d="M47.953,204.02s-50.841-34.7-47.824-95.8C2.995,47.122,38.9,17.1,45.84,11.669,50.367,6.841,50.518,5.03,50.82.2c3.167,6.789,2.565,101.532,3.016,112.7,1.358,43-2.414,82.977-5.883,91.121Z" transform="translate(0 -0.203)" fill="#58aa50" fill-rule="evenodd"/>
        </g>
      </g>
    </g>
    <g id="mysql-seeklogo.com" transform="translate(-683.024 1978)">
      <path id="Path_45" data-name="Path 45" d="M235.648,194.212c-13.918-.347-24.705,1.045-33.752,4.872-2.61,1.043-6.786,1.044-7.134,4.349,1.392,1.393,1.566,3.655,2.784,5.568,2.089,3.479,5.741,8.177,9.047,10.614,3.653,2.783,7.308,5.566,11.134,8,6.786,4.176,14.442,6.611,21.053,10.787,3.829,2.434,7.654,5.568,11.482,8.177,1.914,1.391,3.131,3.654,5.568,4.523v-.521c-1.219-1.567-1.567-3.828-2.784-5.568-1.738-1.74-3.479-3.306-5.219-5.046A82.548,82.548,0,0,0,229.733,222.4c-5.567-3.828-17.747-9.047-20.008-15.485,0,0-.175-.173-.348-.347,3.827-.348,8.35-1.74,12.005-2.784,5.915-1.567,11.308-1.218,17.4-2.784,2.783-.7,5.567-1.566,8.351-2.436V197c-3.131-3.132-5.393-7.307-8.7-10.265a231.972,231.972,0,0,0-28.707-21.4c-5.394-3.479-12.354-5.742-18.1-8.7-2.086-1.045-5.567-1.566-6.784-3.306-3.133-3.827-4.873-8.872-7.134-13.4-5.044-9.57-9.917-20.182-14.267-30.272-3.13-6.786-5.044-13.572-8.872-19.834-17.92-29.577-37.406-47.5-67.331-65.069C80.8,21.1,73.15,19.536,64.973,17.623c-4.348-.175-8.7-.522-13.049-.7-2.783-1.218-5.568-4.523-8-6.089C34.006,4.573,8.429-9,1.122,8.924c-4.7,11.309,6.959,22.443,10.96,28.185,2.959,4,6.786,8.524,8.874,13.049,1.218,2.956,1.565,6.089,2.783,9.221,2.784,7.653,5.393,16.18,9.047,23.314a84.085,84.085,0,0,0,6.438,10.786c1.392,1.913,3.827,2.784,4.35,5.916-2.435,3.48-2.61,8.7-4,13.049-6.263,19.659-3.827,44.017,5.046,58.457,2.783,4.348,9.4,13.919,18.268,10.265,7.829-3.131,6.089-13.048,8.351-21.747.523-2.089.175-3.48,1.218-4.872,0,.174,0,.349,0,.349,2.436,4.871,4.871,9.569,7.133,14.44,5.394,8.524,14.788,17.4,22.617,23.314,4.177,3.13,7.482,8.524,12.7,10.438v-.523h-.349c-1.044-1.566-2.609-2.261-4-3.479a84.506,84.506,0,0,1-9.047-10.439A223.755,223.755,0,0,1,82.023,156.98c-2.783-5.392-5.219-11.308-7.481-16.7-1.045-2.089-1.045-5.22-2.784-6.263-2.61,3.827-6.436,7.133-8.351,11.83-3.3,7.481-3.653,16.7-4.871,26.271-.7.175-.348,0-.7.348-5.566-1.393-7.481-7.133-9.569-12-5.219-12.352-6.089-32.186-1.565-46.452,1.218-3.654,6.438-15.136,4.349-18.616-1.043-3.306-4.524-5.219-6.437-7.829a70.108,70.108,0,0,1-6.263-11.135C34.178,66.685,32.09,55.9,27.567,46.155c-2.088-4.524-5.741-9.221-8.7-13.4-3.3-4.7-6.959-8-9.569-13.571-.869-1.913-2.088-5.045-.7-7.133a2.773,2.773,0,0,1,2.436-2.262c2.262-1.914,8.7.522,10.96,1.565a88.714,88.714,0,0,1,17.224,8.7c2.435,1.74,5.045,5.046,8.176,5.916h3.654c5.568,1.217,11.83.348,17.05,1.913A111.185,111.185,0,0,1,93.158,39.892a154.349,154.349,0,0,1,54.282,59.5c2.088,4,2.957,7.656,4.871,11.831,3.655,8.525,8.178,17.224,11.831,25.575,3.653,8.176,7.132,16.528,12.352,23.314,2.611,3.652,13.048,5.567,17.746,7.481,3.48,1.565,8.874,2.958,12,4.871,5.915,3.652,11.831,7.829,17.4,11.831,2.784,2.087,11.482,6.437,12,9.916Z" fill="#00546b"/>
      <path id="Path_46" data-name="Path 46" d="M58.187,43.022a27.54,27.54,0,0,0-7.133.871v.348H51.4c1.393,2.783,3.827,4.7,5.566,7.133,1.393,2.783,2.61,5.568,4,8.352l.347-.348c2.437-1.741,3.654-4.524,3.654-8.7-1.045-1.218-1.218-2.436-2.088-3.654-1.044-1.741-3.306-2.61-4.7-4Z" fill="#00546b"/>
    </g>
    <text id="_" data-name="+" transform="translate(-781 2050)" fill="#fff" font-size="82" font-family="SitkaHeading, Sitka Heading"><tspan x="0" y="62">+</tspan></text>
  </g>
</svg>
