<svg id="nodejs-seeklogo.com" xmlns="http://www.w3.org/2000/svg" width="160.068" height="180.367" viewBox="0 0 160.068 180.367">
  <path id="Path_28" data-name="Path 28" d="M80.034,180.367a14.531,14.531,0,0,1-6.959-1.823L51.036,165.454c-3.314-1.823-1.657-2.485-.663-2.817a40.124,40.124,0,0,0,9.942-4.474,1.524,1.524,0,0,1,1.657.166l16.9,10.108a2.106,2.106,0,0,0,1.988,0l66.115-38.277a1.9,1.9,0,0,0,.994-1.823V51.948a1.9,1.9,0,0,0-.994-1.823L80.863,12.013a2.105,2.105,0,0,0-1.988,0L12.759,50.125a2.079,2.079,0,0,0-.994,1.823v76.389a2.079,2.079,0,0,0,.994,1.823L30.821,140.6c9.776,4.972,15.907-.828,15.907-6.628V58.576a2.015,2.015,0,0,1,1.988-1.988h8.451a2.015,2.015,0,0,1,1.988,1.988V133.97c0,13.091-7.125,20.713-19.553,20.713-3.811,0-6.794,0-15.245-4.142L6.959,140.6A13.984,13.984,0,0,1,0,128.5V52.113a13.985,13.985,0,0,1,6.959-12.1L73.075,1.74a14.788,14.788,0,0,1,13.918,0l66.116,38.277a13.985,13.985,0,0,1,6.959,12.1V128.5a13.984,13.984,0,0,1-6.959,12.1L86.993,178.876a16.959,16.959,0,0,1-6.959,1.491Zm20.381-52.528c-29,0-34.963-13.256-34.963-24.524a2.015,2.015,0,0,1,1.988-1.988h8.617a1.7,1.7,0,0,1,1.823,1.657c1.326,8.782,5.137,13.091,22.7,13.091,13.919,0,19.885-3.148,19.885-10.605,0-4.308-1.658-7.456-23.364-9.611-18.061-1.823-29.329-5.8-29.329-20.216,0-13.422,11.268-21.375,30.158-21.375,21.21,0,31.649,7.291,32.975,23.2a2.673,2.673,0,0,1-.5,1.491,2.045,2.045,0,0,1-1.326.663h-8.616a1.942,1.942,0,0,1-1.823-1.491c-1.988-9.113-7.125-12.1-20.713-12.1-15.245,0-17.067,5.3-17.067,9.279,0,4.806,2.154,6.3,22.7,8.948,20.382,2.651,29.992,6.462,29.992,20.713-.166,14.582-12.1,22.867-33.14,22.867Z" transform="translate(0 0)" fill="#539e43"/>
</svg>
