<svg xmlns="http://www.w3.org/2000/svg" width="254.43" height="228.753" viewBox="0 0 254.43 228.753">
  <g id="react-seeklogo.com" transform="translate(-0.754 -0.784)">
    <path id="Path_24" data-name="Path 24" d="M.754,114.75c0,19.215,18.762,37.152,48.343,47.263-5.907,29.737-1.059,53.706,15.135,63.045,16.646,9.6,41.444,2.955,64.98-17.619,22.943,19.743,46.131,27.513,62.31,18.147,16.629-9.627,21.687-35.221,15.617-65.887,30.81-10.186,48.044-25.481,48.044-44.949,0-18.769-18.8-35.006-47.979-45.052,6.535-31.933,1-55.32-15.867-65.045-16.259-9.376-39.716-1.2-63,19.057C104.123,2.2,80.9-4.361,64.049,5.392,47.806,14.795,43.171,39.2,49.1,69.487,20.515,79.452.754,96.057.754,114.75Z" fill="#fff"/>
    <path id="Path_25" data-name="Path 25" d="M201.025,79.674q-3.516-1.21-7.274-2.292.616-2.516,1.124-4.961c5.506-26.727,1.906-48.259-10.388-55.348-11.787-6.8-31.065.29-50.535,17.234q-2.808,2.444-5.626,5.162-1.877-1.794-3.744-3.458c-20.4-18.117-40.858-25.752-53.139-18.643C59.667,24.185,56.179,44.427,61.136,69.757q.718,3.67,1.671,7.485c-2.895.822-5.689,1.7-8.363,2.63-23.922,8.34-39.2,21.412-39.2,34.97,0,14,16.4,28.049,41.318,36.566q2.95,1.008,6.109,1.911-1.024,4.12-1.774,8.066c-4.726,24.89-1.035,44.653,10.71,51.428,12.132,6.995,32.491-.2,52.317-17.525q2.351-2.055,4.715-4.346,3.063,2.95,6.108,5.573c19.2,16.525,38.17,23.2,49.9,16.4,12.119-7.016,16.058-28.247,10.944-54.078q-.585-2.959-1.355-6.039,2.145-.634,4.2-1.313c25.9-8.582,42.757-22.457,42.757-36.648,0-13.607-15.77-26.767-40.174-35.168Z" fill="#53c1de"/>
    <path id="Path_26" data-name="Path 26" d="M195.406,142.328c-1.235.409-2.5.8-3.8,1.187a226.4,226.4,0,0,0-11.442-28.625,226.492,226.492,0,0,0,11-28.208c2.311.669,4.555,1.374,6.717,2.119,20.909,7.2,33.664,17.841,33.664,26.041,0,8.735-13.775,20.075-36.141,27.486Zm-9.28,18.389c2.261,11.422,2.584,21.749,1.086,29.822-1.346,7.254-4.052,12.09-7.4,14.027-7.121,4.122-22.349-1.236-38.772-15.368q-2.825-2.43-5.682-5.181A226.745,226.745,0,0,0,154.3,159.968a225.343,225.343,0,0,0,30.6-4.717q.691,2.788,1.223,5.466ZM92.277,203.854c-6.957,2.457-12.5,2.527-15.848.6-7.127-4.111-10.09-19.979-6.049-41.265q.694-3.657,1.649-7.5a227.029,227.029,0,0,0,30.45,4.408,235.026,235.026,0,0,0,19.4,23.964q-2.162,2.087-4.305,3.964c-8.767,7.664-17.552,13.1-25.294,15.835Zm-32.594-61.58c-11.018-3.766-20.117-8.66-26.354-14-5.6-4.8-8.434-9.564-8.434-13.431,0-8.227,12.267-18.722,32.725-25.855C60.1,88.121,62.7,87.306,65.4,86.54a231.374,231.374,0,0,0,11.013,28.537A235.219,235.219,0,0,0,65.26,144.02q-2.884-.828-5.577-1.746ZM70.608,67.9c-4.246-21.7-1.426-38.073,5.671-42.181,7.559-4.376,24.275,1.863,41.893,17.507q1.689,1.5,3.391,3.129a231.3,231.3,0,0,0-19.249,23.82,235.918,235.918,0,0,0-30.152,4.686q-.882-3.548-1.553-6.961Zm97.468,24.067q-3.354-5.793-6.871-11.3c7.209.911,14.117,2.121,20.6,3.6a205.861,205.861,0,0,1-7.232,19.457q-3.074-5.837-6.5-11.758ZM128.329,53.257a206.528,206.528,0,0,1,13.3,16.052Q135,69,128.221,68.992q-6.7,0-13.3.311c4.39-5.789,8.887-11.167,13.409-16.046Zm-40,38.78q-3.35,5.809-6.378,11.685c-2.811-6.667-5.216-13.222-7.18-19.552,6.447-1.443,13.322-2.622,20.485-3.516q-3.559,5.552-6.927,11.383ZM95.46,149.72a205.5,205.5,0,0,1-20.825-3.348c2-6.442,4.453-13.138,7.324-19.948q3.034,5.86,6.406,11.692h0q3.433,5.931,7.094,11.6ZM128.6,177.109c-4.575-4.937-9.138-10.4-13.595-16.27q6.489.255,13.22.256,6.909,0,13.64-.3A205.448,205.448,0,0,1,128.6,177.109Zm46.072-51.032a204.741,204.741,0,0,1,7.588,19.877,204.854,204.854,0,0,1-21.078,3.593q3.519-5.575,6.937-11.5,3.451-5.986,6.553-11.972Zm-14.915,7.15c-3.532,6.124-7.158,11.971-10.839,17.489-6.706.48-13.633.727-20.693.727-7.031,0-13.871-.219-20.458-.646-3.829-5.591-7.534-11.455-11.044-17.517h0c-3.5-6.046-6.722-12.143-9.641-18.206C90,109,93.21,102.894,96.69,96.858h0c3.489-6.051,7.162-11.886,10.956-17.442,6.72-.508,13.611-.773,20.575-.773h0c7,0,13.9.267,20.613.78,3.737,5.515,7.384,11.331,10.887,17.383,3.543,6.12,6.8,12.183,9.741,18.13-2.934,6.049-6.181,12.173-9.709,18.29ZM179.666,25.435c7.566,4.363,10.509,21.961,5.755,45.038-.3,1.472-.645,2.972-1.016,4.492a231.19,231.19,0,0,0-30.212-4.772,226.67,226.67,0,0,0-19.1-23.838q2.605-2.505,5.2-4.766c16.682-14.517,32.273-20.249,39.377-16.153Z" fill="#fff"/>
    <path id="Path_27" data-name="Path 27" d="M128.221,94.665a20.177,20.177,0,1,1-20.177,20.177,20.177,20.177,0,0,1,20.177-20.177" fill="#53c1de"/>
  </g>
</svg>
