<svg id="adobe-xd-seeklogo.com" xmlns="http://www.w3.org/2000/svg" width="392.82" height="383" viewBox="0 0 392.82 383">
  <path id="Path_51" data-name="Path 51" d="M323.26,383H69.561A69.5,69.5,0,0,1,0,313.439V69.561A69.5,69.5,0,0,1,69.561,0h253.7A69.5,69.5,0,0,1,392.82,69.561V313.439A69.5,69.5,0,0,1,323.26,383Z" fill="#ff26be"/>
  <path id="Path_52" data-name="Path 52" d="M404.865,454.454H163.61a59.515,59.515,0,0,1-59.41-59.41V163.61a59.515,59.515,0,0,1,59.41-59.41h241.1a59.4,59.4,0,0,1,59.41,59.41V394.887a59.314,59.314,0,0,1-59.253,59.567Z" transform="translate(-87.827 -87.827)" fill="#2e001f"/>
  <path id="Path_53" data-name="Path 53" d="M548.681,678.875l45.834,88.055c.817,1.3.33,2.624-.99,2.624H565.038a3.209,3.209,0,0,1-3.441-2.121c-10.48-21.605-21.118-43.21-32.086-66.45h-.33c-9.82,21.935-20.631,45.017-31.1,66.622a3.158,3.158,0,0,1-2.954,1.807H468.152c-1.634,0-1.807-1.3-.974-2.294l44.844-85.446-43.367-86.421a1.323,1.323,0,0,1,.974-2.294h28.157c1.634,0,2.294.33,2.938,1.807,10.308,21.605,20.788,43.87,30.609,65.632h.33c9.491-21.605,19.971-44.027,30.121-65.475.817-1.3,1.3-2.121,2.954-2.121h26.35c1.3,0,1.807.99.99,2.294Zm53.864,26.68c0-38.135,25.376-67.927,65.632-67.927a72.155,72.155,0,0,1,8.516.33V594.591a1.631,1.631,0,0,1,1.634-1.634H704.19c1.3,0,1.634.487,1.634,1.3V744.523a116.9,116.9,0,0,0,.817,16.043c0,.99-.33,1.3-1.3,1.807a97.439,97.439,0,0,1-41.906,9.491c-35.527.141-60.9-21.778-60.887-66.308Zm74.133-41.89a24.6,24.6,0,0,0-9.491-1.634c-20.631,0-35.024,15.87-35.024,42.236,0,30.121,14.739,42.236,33.233,42.236,3.928,0,8.186-.487,11.3-1.807V663.665Z" transform="translate(-393.359 -499.654)" fill="#ffd9f2"/>
</svg>
